<?xml version="1.0" encoding="utf-8"?>
<!-- Generator: Adobe Illustrator 25.2.1, SVG Export Plug-In . SVG Version: 6.00 Build 0)  -->
<svg version="1.1" id="Layer_1" xmlns="http://www.w3.org/2000/svg" xmlns:xlink="http://www.w3.org/1999/xlink" x="0px" y="0px"
	 viewBox="0 0 913.2 134.1" style="enable-background:new 0 0 913.2 134.1;" xml:space="preserve">
<style type="text/css">
	.st0{fill:#FFE000;}
	.st1{fill:#FFBE00;}
	.st2{fill:#FFFFFF;}
	.st3{font-family:'ShadowsIntoLight';}
	.st4{font-size:135.566px;}
</style>
<g id="Layer_2_1_">
	<g id="black">
		<path class="st0" d="M125.8,7.2c3,3.2,4.5,7.4,4.2,11.8c-0.2,8.9,0.7,17.8,2.7,26.4c4.9,22.1-2.4,47.5-21.1,66.2
			c-17.8,17.7-41.5,25.1-62.7,21.7c-10.1-1.8-20.4-2.1-30.6-1c-5.3,0.6-10.2-0.6-13.6-4s-4.7-8.3-4-13.6C2,104.6,2,94.3,0.7,84.2
			c-3-21,4.5-44.2,21.9-61.7C41,4.1,65.9-3.2,87.8,1.3c8.6,1.7,17.3,2.3,26.1,1.8C118.5,2.9,122.8,4.2,125.8,7.2z"/>
		<path class="st1" d="M116,44.1c2.1,4.7,3.3,9.8,3.6,15c0.3,5.3-0.2,10.6-1.4,15.7c-2.6,10.4-7.9,20-15.3,27.7
			C95.5,110.3,86.2,116,76,119c-10.1,3-21.2,3.1-30.7-0.5c9.7-0.5,19.2-2.8,28-6.8c8.4-3.9,16-9.4,22.4-16.1
			c6.5-6.7,11.6-14.5,15.1-23.1C114.3,63.4,116.1,53.8,116,44.1z"/>
	</g>
</g>
<text transform="matrix(1 0 0 1 166.5435 121.2311)" class="st2 st3 st4">Eli Lemons</text>
</svg>
