<svg xmlns="http://www.w3.org/2000/svg" viewBox="0 0 913.23 134.14"><defs><style>.cls-1{fill:#ffe000;}.cls-2{fill:#ffbe00;}.cls-3{fill:#333;}</style></defs><title>logo</title><g id="Layer_2" data-name="Layer 2"><g id="black"><path class="cls-1" d="M125.81,7.23A15.39,15.39,0,0,1,130,19a105.57,105.57,0,0,0,2.71,26.43c4.85,22.09-2.39,47.48-21.09,66.19C93.86,129.3,70.14,136.72,48.9,133.34a110,110,0,0,0-30.63-1c-5.31.65-10.21-.62-13.59-4S0,120,.68,114.71a114.44,114.44,0,0,0,0-30.49c-3-21,4.48-44.22,21.92-61.66C41,4.12,65.94-3.17,87.8,1.26a106.08,106.08,0,0,0,26.08,1.83C118.54,2.87,122.78,4.21,125.81,7.23Z"/><path class="cls-2" d="M116,44.14a42.76,42.76,0,0,1,3.57,15,53.61,53.61,0,0,1-1.43,15.68,60.71,60.71,0,0,1-15.33,27.66A61.3,61.3,0,0,1,75.86,119c-10.13,3-21.17,3.12-30.72-.53a75.62,75.62,0,0,0,28-6.84A74.7,74.7,0,0,0,95.56,95.55a72.68,72.68,0,0,0,15.08-23.12A73.34,73.34,0,0,0,116,44.14Z"/><path class="cls-3" d="M173.91,123.87q-.32-20.45-.72-35t-.72-24.53q-.33-10-.73-15.85t-.56-9.41c-.11-2.36-.22-4-.32-5.07a27.72,27.72,0,0,1-.16-3c0-1.82.53-3,1.6-3.45a9.74,9.74,0,0,1,4-.73,7.45,7.45,0,0,1,4.26,1c1,.7,1.53,2.49,1.53,5.39l3.06,86.55a15.74,15.74,0,0,0,1.6-.32,32.26,32.26,0,0,0,3.38-1l4-1.37a28,28,0,0,0,3.38-1.37c1.29-.54,3.22-1.39,5.8-2.57s5.47-2.52,8.68-4l10.22-4.74q5.38-2.49,10.3-4.67t8.68-4c2.52-1.23,4.43-2.12,5.71-2.65h1.94a11.51,11.51,0,0,1,1.93.16,2.88,2.88,0,0,1,1.6.8,3.22,3.22,0,0,1,.81,1.93,6.14,6.14,0,0,1-.56,2.74,25.57,25.57,0,0,1-1.53,2.57,67.65,67.65,0,0,0-18.58,6.44q-9.1,4.66-18,9.65a187.42,187.42,0,0,1-18,8.85,47.2,47.2,0,0,1-18.58,3.86Q173.91,130.14,173.91,123.87Z"/><path class="cls-3" d="M257.73,11.85A2.59,2.59,0,0,1,259,9.28a6.37,6.37,0,0,1,2.9-.64q3.21,0,4,2.09a13.49,13.49,0,0,1,.8,4.82,5.62,5.62,0,0,1-2.41,2.5,4.12,4.12,0,0,1-3,.32,4.43,4.43,0,0,1-2.57-2A8.22,8.22,0,0,1,257.73,11.85Zm3.54,115.2q0-10.45-.4-22t-.8-23.41q-.4-11.84-.24-23.25A186.35,186.35,0,0,1,261.27,37a5.74,5.74,0,0,1,1.53-.24c.81-.05,1.37-.08,1.69-.08a7.79,7.79,0,0,1,3.62.72c.91.49,1.37,1.53,1.37,3.14q0,9.49-.08,20.67t-.16,22.69q-.09,11.5-.08,22.76t.32,20.44c.1,1.82-.24,3-1.05,3.62a4.93,4.93,0,0,1-3,.88,5.63,5.63,0,0,1-3.22-.88C261.38,130.08,261.06,128.87,261.27,127.05Z"/><path class="cls-3" d="M293.29,127.85a19.77,19.77,0,0,0,3.46-1.93q3.45-2.08,8.2-5.55c3.17-2.3,6.41-4.83,9.74-7.56a70.52,70.52,0,0,0,8.2-7.8q3.23-3.7,3.46-6.36t-4.42-3.46a26.58,26.58,0,0,0-9.74.16A54.49,54.49,0,0,0,305,97.61L299,100a13,13,0,0,1-6.19.8q-7.08,0-9.74-4.42t-2.65-12A32,32,0,0,1,283.8,70a41.06,41.06,0,0,1,8.68-11.82,42.14,42.14,0,0,1,12.23-8,35.56,35.56,0,0,1,14.16-3,22.63,22.63,0,0,1,5,.48c1.39.32,2.09,1.56,2.09,3.7A6.09,6.09,0,0,1,324,55.69a5.89,5.89,0,0,1-4.35,2,3.29,3.29,0,0,1-.8-.25,5.23,5.23,0,0,1-1.29-.72A5.36,5.36,0,0,0,316.3,56a3.45,3.45,0,0,0-.81-.24,12.2,12.2,0,0,0-10,1.44A31,31,0,0,0,296.91,65a43.43,43.43,0,0,0-6,10.61,28.17,28.17,0,0,0-2.26,10.22,4.83,4.83,0,0,0,.73,2.82,4.16,4.16,0,0,0,1.93,1.52,8.43,8.43,0,0,0,2.73.57c1,0,2.07.08,3.14.08a23,23,0,0,0,6.52-1,64.32,64.32,0,0,0,6.43-2.25,63.63,63.63,0,0,1,6.44-2.25,23.89,23.89,0,0,1,6.83-1,8.54,8.54,0,0,1,3.54.89,11.37,11.37,0,0,1,3.54,2.57,16.82,16.82,0,0,1,2.74,3.86,11.86,11.86,0,0,1,1.29,4.75c.64,1.5.45,3.49-.57,6a38.89,38.89,0,0,1-4.58,7.89,69.29,69.29,0,0,1-7.4,8.44,113.44,113.44,0,0,1-8.69,7.72,53.11,53.11,0,0,1-8.53,5.64,14.49,14.49,0,0,1-7.08,2c-2.14,0-3.4-.65-3.78-1.93A15.4,15.4,0,0,1,293.29,127.85Z"/><path class="cls-3" d="M386.6,126.08c-.54-2.79-1-6.14-1.37-10s-.78-7.89-1.2-11.91-.94-7.8-1.53-11.34a29.19,29.19,0,0,0-2.66-8.69,252.7,252.7,0,0,1-14.47,26.31q-6.28,9.57-11,13.67t-8,3.94a6.85,6.85,0,0,1-5.31-2.89,17.06,17.06,0,0,1-3-7,65.59,65.59,0,0,1-1.21-8,44,44,0,0,1,1.61-10q1.61-6.44,4.34-14.08a162,162,0,0,1,6.52-15.52,112.92,112.92,0,0,1,8.12-14.32,57.23,57.23,0,0,1,9-10.62q4.67-4.19,9.33-4.18,6.92-1.12,10.22,3t1.21,13.76a159.55,159.55,0,0,0,.88,18.18q.89,7.56,1.93,14.48T392,105.33a159.31,159.31,0,0,1,.89,18.18,11.75,11.75,0,0,1-.41,3.3c-.26.91-1.58,1.36-3.94,1.36-.32,0-.72-.26-1.2-.8A2.26,2.26,0,0,1,386.6,126.08Zm-8.69-71.91q-1.77-2.58-4.82-.49a27.26,27.26,0,0,0-6.44,6.92,106.81,106.81,0,0,0-6.92,11.59q-3.54,6.75-6.59,13.67T347.83,99a74.37,74.37,0,0,0-3.06,10.22q0,5.79,1.77,6.51t4.35-1.85a53,53,0,0,0,5.87-7.4c2.19-3.21,4.34-6.65,6.43-10.29s4.08-7.19,6-10.62,3.35-6.22,4.42-8.37a49.79,49.79,0,0,0,2.25-6.27c.54-1.93,1-3.78,1.37-5.55a30.4,30.4,0,0,0,.64-5.39C377.89,58.14,377.91,56.2,377.91,54.17Z"/><path class="cls-3" d="M479.11,123.87q-.33-20.45-.72-35t-.73-24.53c-.21-6.65-.46-11.93-.72-15.85s-.46-7.05-.57-9.41-.21-4-.32-5.07-.16-2-.16-3c0-1.82.54-3,1.61-3.45a9.66,9.66,0,0,1,4-.73,7.47,7.47,0,0,1,4.27,1c1,.7,1.53,2.49,1.53,5.39l3.05,86.55a15.07,15.07,0,0,0,1.61-.32,33,33,0,0,0,3.38-1l4-1.37a28.74,28.74,0,0,0,3.38-1.37c1.29-.54,3.22-1.39,5.79-2.57s5.47-2.52,8.69-4l10.21-4.74q5.4-2.49,10.3-4.67t8.69-4c2.52-1.23,4.42-2.12,5.71-2.65h1.93a11.34,11.34,0,0,1,1.93.16,2.87,2.87,0,0,1,1.61.8,3.22,3.22,0,0,1,.81,1.93,6,6,0,0,1-.57,2.74,22.27,22.27,0,0,1-1.53,2.57,67.76,67.76,0,0,0-18.58,6.44q-9.09,4.66-18,9.65a186.28,186.28,0,0,1-18,8.85,47.16,47.16,0,0,1-18.58,3.86Q479.11,130.14,479.11,123.87Z"/><path class="cls-3" d="M568.56,95.51l-2.41.49a11.81,11.81,0,0,1-3.38.16,7.42,7.42,0,0,1-3.14-1,2.91,2.91,0,0,1-1.37-2.73,2.23,2.23,0,0,1,.49-1.61c.32-.32.86-.81,1.61-1.45a24.89,24.89,0,0,0,6-7.48A91.82,91.82,0,0,0,571,72.1q2.1-5.22,4.43-10.45a50.82,50.82,0,0,1,5.39-9.41,24.12,24.12,0,0,1,7.56-6.76,20.93,20.93,0,0,1,11.1-2.41,17.52,17.52,0,0,1,6.11,1.28,25.48,25.48,0,0,1,6.28,3.46A19.57,19.57,0,0,1,616.67,53a12.47,12.47,0,0,1,1.93,6.76q.79,1.29-1.53,3.7a44.64,44.64,0,0,1-6.36,5.23q-4,2.8-9.09,5.79t-9.73,5.55q-4.67,2.58-8.21,4.5a31.83,31.83,0,0,0-4.66,2.9,16.37,16.37,0,0,0-1.29,3.7c-.32,1.4-.56,2.71-.72,3.94s-.27,2.36-.32,3.38-.08,1.8-.08,2.33q0,3.06-.25,6.76a29.73,29.73,0,0,0,.33,7,10.12,10.12,0,0,0,2.65,5.47q2.08,2.17,7.08,2.17a19.82,19.82,0,0,0,10-2.65,44,44,0,0,0,8.69-6.52,63.43,63.43,0,0,0,7.32-8.37q3.3-4.5,6-8.44c1.76-2.63,3.35-4.8,4.74-6.52s2.58-2.57,3.54-2.57a12.09,12.09,0,0,1,3.46.56A2.49,2.49,0,0,1,632,90.37a14.44,14.44,0,0,1-2.33,6.91,61.21,61.21,0,0,1-6.12,8.53,90.3,90.3,0,0,1-8.68,8.93,100.09,100.09,0,0,1-9.9,7.88,60.57,60.57,0,0,1-9.81,5.63,21.24,21.24,0,0,1-8.53,2.18q-7.25,0-10.94-3.54a19.39,19.39,0,0,1-5.23-8.85,43.13,43.13,0,0,1-1.61-11.34C568.75,102.67,568.67,99,568.56,95.51Zm29.6-43.44q-2.73,0-5.79,2.66a35.65,35.65,0,0,0-5.71,6.43,42.64,42.64,0,0,0-4.34,7.73,17.35,17.35,0,0,0-1.69,6.51,20.59,20.59,0,0,0,7-1.85A63.46,63.46,0,0,0,596.72,69a52,52,0,0,0,7.88-5.79q3.38-3.06,3.38-5.8A3.05,3.05,0,0,0,606.85,55a10.08,10.08,0,0,0-2.65-1.61,16,16,0,0,0-3.14-1A14.56,14.56,0,0,0,598.16,52.07Z"/><path class="cls-3" d="M646.43,129.76q-.48-4.5-.81-12.23T645,100.72q-.32-9.09-.72-18.9t-.89-18.67q-.48-8.84-1.2-16.09t-1.53-11.58c0-2.14.48-3.4,1.45-3.78a10.4,10.4,0,0,1,3.7-.56h1.44a5.56,5.56,0,0,1,1.61.16,54.21,54.21,0,0,1,1.85,12.47q.4,7.63.65,16.65t.48,18.66q.24,9.66,1,18.34,2.25-12.7,3.78-21.07t2.89-13.44a45.12,45.12,0,0,1,2.58-7.56,7,7,0,0,1,2.73-3.3,6.51,6.51,0,0,1,3.38-.72c1.23.05,2.71.08,4.42.08a5.87,5.87,0,0,1,4.75,2.25,16.37,16.37,0,0,1,2.9,5.79,52,52,0,0,1,1.6,7.72q.57,4.18,1.05,8.13c.32,2.63.67,5,1,7.16a8.31,8.31,0,0,0,1.85,4.5q4-11.89,6.91-19.46t5-12a31.16,31.16,0,0,1,3.7-6.35,6.94,6.94,0,0,1,2.9-2.34,4,4,0,0,1,2.33-.08,7.17,7.17,0,0,0,2.17.32c2.9,0,5.1,1.51,6.6,4.51A74.36,74.36,0,0,1,719,65.32a104.11,104.11,0,0,1,1.12,12.55c.11,4,.14,7.86.09,11.51s0,7.18.32,10.61a52.78,52.78,0,0,0,1.77,10.14,31.64,31.64,0,0,0,4.74,9.81,9,9,0,0,1-2.57,3.46,6.18,6.18,0,0,1-3.54.89,4.78,4.78,0,0,1-3.38-1.37,11.34,11.34,0,0,1-2.41-3.38,22.86,22.86,0,0,1-1.53-4.1c-.38-1.39-.73-2.63-1.05-3.7q-.64-23-2-35.31t-4.1-13q-2.75-.63-7,10.7T688.9,109.65a1.94,1.94,0,0,1-1.45,1,11.86,11.86,0,0,1-2,.16c-.7,0-1.39,0-2.09-.08a8.91,8.91,0,0,0-2,.08q-4-23.64-6.68-34t-5.38-8q-2.74,2.41-6.12,17.3t-8.69,41.75Z"/><path class="cls-3" d="M735.24,108.22a95.72,95.72,0,0,1-1.13-14.4A117.16,117.16,0,0,1,735,79.59q.87-7.25,2.57-15t3.94-16.81a6,6,0,0,1,1-3.3,8.4,8.4,0,0,1,2.57-2.57,16.43,16.43,0,0,1,3.38-1.69,9.87,9.87,0,0,1,3.38-.64,10.22,10.22,0,0,1,6.43,2.25,26.5,26.5,0,0,1,5.23,5.47,40.75,40.75,0,0,1,4,6.84c1.13,2.41,2.07,4.48,2.82,6.19a89.69,89.69,0,0,1,1.85,12.79,101,101,0,0,1,.08,14.56A82.77,82.77,0,0,1,770,102.19a55.1,55.1,0,0,1-5,13.11,32.13,32.13,0,0,1-8.28,10,24.28,24.28,0,0,1-12,5,6.66,6.66,0,0,1-5.63-2.49,16,16,0,0,1-2.82-6.11,33.63,33.63,0,0,1-1-7.32C735.26,111.87,735.24,109.83,735.24,108.22ZM743.33,96c.06,3.42.06,6.83,0,10.25,0,1.33,0,2.57.08,3.74a23.21,23.21,0,0,0,.32,2.81c.16.91.38,1.88.65,2.9s.61,2.17,1,3.46h1a9.25,9.25,0,0,0,6.59-2.58,21.65,21.65,0,0,0,4.67-6.67,51.3,51.3,0,0,0,3.22-9.17,101.36,101.36,0,0,0,2-10q.72-4.9,1-9.17c.16-2.84.25-5.12.25-6.84V71.51c0-1.39-.06-3-.17-4.74s-.29-3.59-.56-5.47a27.79,27.79,0,0,0-1.21-5.15,11,11,0,0,0-2.09-3.78,4.29,4.29,0,0,0-3.38-1.45,6.85,6.85,0,0,0-6,.48,11.2,11.2,0,0,0-4,5.39,40.51,40.51,0,0,0-2.33,9.26,99.57,99.57,0,0,0-1,12.06Q743.16,86.42,743.33,96Z"/><path class="cls-3" d="M786.08,127.81q-1.77-21.72-3.14-43.52T780,39c0-2.58,1.4-3.86,4.19-3.86h1.28c.32,0,.7.43,1.13,1.28a22.66,22.66,0,0,1,1.37,4.75q.72,3.46,1.61,10.46t2.17,18.26Q793,81.16,794.6,98a188.68,188.68,0,0,0,5.31-21.23,120.25,120.25,0,0,1,5-18.75,47.12,47.12,0,0,1,8.61-14.88q5.55-6.43,16-9.49,5.79,1,9.33,7a54.35,54.35,0,0,1,5.63,14.88,125.89,125.89,0,0,1,2.89,19.22q.81,10.38,1,19.87t.16,17q0,7.47.32,10.7a6.18,6.18,0,0,1-1.45,2.25A5.51,5.51,0,0,1,845.2,126a4.45,4.45,0,0,1-2.33.16,3.57,3.57,0,0,1-2.09-1.69c0-1.18-.11-3.6-.32-7.24s-.49-7.91-.81-12.79-.67-10.08-1-15.61-.7-10.72-1-15.6-.51-9.15-.72-12.79-.38-6.06-.49-7.24q-3.37-6-6.67-6.76t-6.6,2.09a29.71,29.71,0,0,0-6.35,8.85A119.33,119.33,0,0,0,811,70.77q-2.73,7.49-5.14,15.69t-4.19,15.85q-1.77,7.64-3,13.83t-1.53,9.57a5.39,5.39,0,0,1-2,2.18,11.15,11.15,0,0,1-3.22,1.52,7.93,7.93,0,0,1-3.38.25A3.17,3.17,0,0,1,786.08,127.81Z"/><path class="cls-3" d="M871.67,127.85a19.77,19.77,0,0,0,3.46-1.93q3.45-2.08,8.2-5.55c3.16-2.3,6.41-4.83,9.73-7.56a69.88,69.88,0,0,0,8.21-7.8c2.14-2.47,3.3-4.59,3.46-6.36s-1.32-2.92-4.43-3.46a26.52,26.52,0,0,0-9.73.16,54.49,54.49,0,0,0-7.16,2.26l-6,2.41a13.07,13.07,0,0,1-6.2.8q-7.08,0-9.73-4.42t-2.65-12A32.13,32.13,0,0,1,862.17,70a41.09,41.09,0,0,1,8.69-11.82,42.14,42.14,0,0,1,12.23-8,35.56,35.56,0,0,1,14.16-3,22.63,22.63,0,0,1,5,.48c1.39.32,2.09,1.56,2.09,3.7a6.13,6.13,0,0,1-1.93,4.26,5.89,5.89,0,0,1-4.35,2,3,3,0,0,1-.8-.25,5.23,5.23,0,0,1-1.29-.72,5.23,5.23,0,0,0-1.29-.72,3.57,3.57,0,0,0-.8-.24,12.23,12.23,0,0,0-10,1.44,31.15,31.15,0,0,0-8.6,7.81,43.47,43.47,0,0,0-6,10.61A28.35,28.35,0,0,0,867,85.86a4.83,4.83,0,0,0,.73,2.82,4.16,4.16,0,0,0,1.93,1.52,8.43,8.43,0,0,0,2.73.57c1,0,2.06.08,3.14.08a22.89,22.89,0,0,0,6.51-1,63.63,63.63,0,0,0,6.44-2.25,64.32,64.32,0,0,1,6.43-2.25,24,24,0,0,1,6.84-1,8.62,8.62,0,0,1,3.54.89,11.37,11.37,0,0,1,3.54,2.57,17.13,17.13,0,0,1,2.74,3.86,11.85,11.85,0,0,1,1.28,4.75c.65,1.5.46,3.49-.56,6a38.51,38.51,0,0,1-4.59,7.89,67.61,67.61,0,0,1-7.4,8.44,111.49,111.49,0,0,1-8.68,7.72,53.11,53.11,0,0,1-8.53,5.64,14.49,14.49,0,0,1-7.08,2c-2.15,0-3.41-.65-3.78-1.93A15.4,15.4,0,0,1,871.67,127.85Z"/></g></g></svg>